# xmcd CD database file
#
# Track frame offsets:
#	150
#	38844
#	56244
#	89016
#	119660
#	149857
#	160894
#	185499
#	201154
#	226249
#	252381
#
# Disc length: 3860 seconds
#
# Revision: 0
# Processed by: cddbd v1.5PL3 Copyright (c) Steve Scherf et al.
# Submitted via: CDex 1.51
#
DISCID=ab0f120b
DTITLE=Yanni - Tribute
DYEAR=1900
DGENRE=New Age
TTITLE0=Deliverance
TTITLE1=Adagio in C Minor
TTITLE2=Renegade
TTITLE3=Dance with a Stranger
TTITLE4=Tribute
TTITLE5=Prelude
TTITLE6=Love is All
TTITLE7=Southern Exposure
TTITLE8=Waltz In
TTITLE9=Nightingale
TTITLE10=Niki Nana (We're One)
EXTD=
EXTT0=
EXTT1=
EXTT2=
EXTT3=
EXTT4=
EXTT5=
EXTT6=
EXTT7=
EXTT8=
EXTT9=
EXTT10=
PLAYORDER=
